# xmcd CD database file
#
# Track frame offsets:
#	150
#	21429
#	44307
#	66288
#	87148
#	108332
#	129003
#	136136
#	155709
#	177185
#	204341
#	221549
#
# Disc length: 3149 seconds
#
# Revision: 0
# Processed by: cddbd v1.5.1PL0 Copyright (c) Steve Scherf et al.
# Submitted via: CDex 1.51
#
DISCID=9f0c4b0c
DTITLE=SCIGANI - NIGDY WIECEJ BLUESA
DYEAR=2005
DGENRE=Blues
TTITLE0=Uf
TTITLE1=W gore, w dol
TTITLE2=Nie wmawiaj mi
TTITLE3=Co robie zle
TTITLE4=z dedykacja
TTITLE5=51015
TTITLE6=Oddech
TTITLE7=Soprano
TTITLE8=Maceo
TTITLE9=Nju bluz
TTITLE10=Zatrzymaj sie
TTITLE11=Blues no mo'
EXTD=YEAR: 2005
EXTT0=
EXTT1=
EXTT2=
EXTT3=
EXTT4=
EXTT5=
EXTT6=
EXTT7=
EXTT8=
EXTT9=
EXTT10=
EXTT11=
PLAYORDER=
